<svg width="472" height="639" viewBox="0 0 472 639" fill="none" xmlns="http://www.w3.org/2000/svg">
<path d="M38.72 310.528C39.232 310.869 39.5307 311.317 39.616 311.872C39.7013 312.384 39.5733 312.896 39.232 313.408C38.9333 313.792 38.5493 314.005 38.08 314.048C37.6107 314.091 37.1627 314.005 36.736 313.792C35.1147 312.725 33.3653 311.893 31.488 311.296C29.6533 310.699 27.6693 310.4 25.536 310.4C22.9333 310.4 20.5013 310.869 18.24 311.808C16.0213 312.704 14.08 314.027 12.416 315.776C10.752 317.483 9.45067 319.509 8.512 321.856C7.616 324.203 7.168 326.784 7.168 329.6C7.168 332.501 7.63733 335.147 8.576 337.536C9.51467 339.883 10.816 341.909 12.48 343.616C14.1867 345.323 16.1493 346.624 18.368 347.52C20.5867 348.416 22.976 348.864 25.536 348.864C27.6267 348.864 29.5893 348.565 31.424 347.968C33.3013 347.371 35.0507 346.56 36.672 345.536C37.0987 345.28 37.5467 345.195 38.016 345.28C38.528 345.323 38.9333 345.557 39.232 345.984C39.616 346.453 39.744 346.965 39.616 347.52C39.5307 348.032 39.2533 348.437 38.784 348.736C37.7173 349.419 36.4587 350.059 35.008 350.656C33.5573 351.253 32.0213 351.723 30.4 352.064C28.7787 352.448 27.1573 352.64 25.536 352.64C22.464 352.64 19.584 352.085 16.896 350.976C14.208 349.867 11.8187 348.309 9.728 346.304C7.63733 344.256 5.99467 341.824 4.8 339.008C3.648 336.192 3.072 333.056 3.072 329.6C3.072 326.272 3.648 323.221 4.8 320.448C5.952 317.632 7.552 315.2 9.6 313.152C11.648 311.104 14.0373 309.504 16.768 308.352C19.4987 307.2 22.4213 306.624 25.536 306.624C27.968 306.624 30.3147 306.965 32.576 307.648C34.8373 308.331 36.8853 309.291 38.72 310.528ZM81.8765 307.2C82.3885 307.2 82.8365 307.392 83.2205 307.776C83.6472 308.16 83.8605 308.629 83.8605 309.184V350.016C83.8178 350.571 83.5832 351.04 83.1565 351.424C82.7725 351.808 82.3245 352 81.8125 352C81.2152 352 80.7245 351.808 80.3405 351.424C79.9992 351.04 79.8285 350.571 79.8285 350.016V309.184C79.8285 308.629 80.0205 308.16 80.4045 307.776C80.7885 307.392 81.2792 307.2 81.8765 307.2ZM111.893 307.2C112.49 307.2 112.959 307.392 113.301 307.776C113.685 308.16 113.877 308.629 113.877 309.184V350.016C113.834 350.571 113.621 351.04 113.237 351.424C112.895 351.808 112.426 352 111.829 352C111.274 352 110.805 351.808 110.421 351.424C110.037 351.04 109.845 350.571 109.845 350.016V309.184C109.845 308.629 110.037 308.16 110.421 307.776C110.847 307.392 111.338 307.2 111.893 307.2ZM81.5565 327.232H111.957L111.893 330.944H81.3005L81.5565 327.232ZM161.923 350.016C161.88 350.571 161.646 351.04 161.219 351.424C160.835 351.808 160.387 352 159.875 352C159.278 352 158.787 351.808 158.403 351.424C158.062 351.04 157.891 350.571 157.891 350.016V309.184C157.891 308.629 158.083 308.16 158.467 307.776C158.851 307.392 159.342 307.2 159.939 307.2C160.451 307.2 160.899 307.392 161.283 307.776C161.71 308.16 161.923 308.629 161.923 309.184V350.016ZM208.067 352C207.427 352 206.894 351.808 206.467 351.424C206.083 351.04 205.891 350.592 205.891 350.08V309.12C205.891 308.608 206.083 308.16 206.467 307.776C206.851 307.392 207.299 307.2 207.811 307.2H225.091C227.523 307.2 229.699 307.733 231.619 308.8C233.539 309.824 235.032 311.253 236.099 313.088C237.208 314.923 237.763 316.992 237.763 319.296C237.763 321.173 237.422 322.901 236.739 324.48C236.056 326.059 235.096 327.403 233.859 328.512C232.622 329.579 231.235 330.368 229.699 330.88L227.459 330.176C229.038 330.304 230.51 330.816 231.875 331.712C233.24 332.565 234.328 333.76 235.139 335.296C235.992 336.789 236.44 338.603 236.483 340.736C236.526 342.571 236.611 344 236.739 345.024C236.91 346.048 237.144 346.816 237.443 347.328C237.742 347.84 238.126 348.245 238.595 348.544C239.022 348.8 239.299 349.163 239.427 349.632C239.598 350.101 239.555 350.549 239.299 350.976C239.128 351.317 238.872 351.573 238.531 351.744C238.232 351.872 237.912 351.936 237.571 351.936C237.23 351.936 236.888 351.851 236.547 351.68C235.95 351.339 235.331 350.805 234.691 350.08C234.094 349.355 233.582 348.288 233.155 346.88C232.771 345.472 232.579 343.509 232.579 340.992C232.579 339.328 232.302 337.963 231.747 336.896C231.235 335.829 230.552 335.019 229.699 334.464C228.888 333.867 227.971 333.461 226.947 333.248C225.966 332.992 225.027 332.864 224.131 332.864H209.219L209.923 331.968V350.08C209.923 350.592 209.752 351.04 209.411 351.424C209.07 351.808 208.622 352 208.067 352ZM209.219 329.344H225.283C226.734 329.216 228.099 328.747 229.379 327.936C230.659 327.083 231.683 325.931 232.451 324.48C233.262 323.029 233.667 321.344 233.667 319.424C233.667 316.992 232.835 314.987 231.171 313.408C229.55 311.787 227.416 310.976 224.771 310.976H209.475L209.923 310.08V330.24L209.219 329.344ZM295.742 312.128L280.19 350.784C280.019 351.211 279.785 351.531 279.486 351.744C279.187 351.957 278.846 352.064 278.462 352.064C277.865 352.064 277.417 351.915 277.118 351.616C276.819 351.275 276.649 350.869 276.606 350.4C276.563 350.187 276.585 349.931 276.67 349.632L293.566 308.288C293.779 307.819 294.035 307.499 294.334 307.328C294.675 307.115 295.059 307.008 295.486 307.008C295.913 307.008 296.275 307.136 296.574 307.392C296.915 307.605 297.171 307.904 297.342 308.288L314.174 349.44C314.259 349.696 314.302 349.952 314.302 350.208C314.302 350.805 314.11 351.275 313.726 351.616C313.342 351.915 312.894 352.064 312.382 352.064C311.955 352.064 311.571 351.957 311.23 351.744C310.931 351.488 310.697 351.168 310.526 350.784L294.59 311.872L295.742 312.128ZM283.902 339.072L285.502 335.296H305.342L306.11 339.072H283.902ZM356.38 352C355.74 352 355.206 351.808 354.78 351.424C354.396 351.04 354.204 350.592 354.204 350.08V309.12C354.204 308.608 354.396 308.16 354.78 307.776C355.164 307.392 355.612 307.2 356.124 307.2H373.404C375.836 307.2 378.012 307.733 379.932 308.8C381.852 309.824 383.345 311.253 384.412 313.088C385.521 314.923 386.076 316.992 386.076 319.296C386.076 321.173 385.734 322.901 385.052 324.48C384.369 326.059 383.409 327.403 382.172 328.512C380.934 329.579 379.548 330.368 378.012 330.88L375.772 330.176C377.35 330.304 378.822 330.816 380.188 331.712C381.553 332.565 382.641 333.76 383.451 335.296C384.305 336.789 384.753 338.603 384.796 340.736C384.838 342.571 384.924 344 385.052 345.024C385.222 346.048 385.457 346.816 385.756 347.328C386.054 347.84 386.438 348.245 386.908 348.544C387.334 348.8 387.612 349.163 387.74 349.632C387.91 350.101 387.868 350.549 387.612 350.976C387.441 351.317 387.185 351.573 386.844 351.744C386.545 351.872 386.225 351.936 385.884 351.936C385.542 351.936 385.201 351.851 384.86 351.68C384.262 351.339 383.644 350.805 383.004 350.08C382.406 349.355 381.894 348.288 381.468 346.88C381.084 345.472 380.892 343.509 380.892 340.992C380.892 339.328 380.614 337.963 380.06 336.896C379.548 335.829 378.865 335.019 378.012 334.464C377.201 333.867 376.284 333.461 375.26 333.248C374.278 332.992 373.34 332.864 372.444 332.864H357.532L358.236 331.968V350.08C358.236 350.592 358.065 351.04 357.724 351.424C357.382 351.808 356.934 352 356.38 352ZM357.532 329.344H373.596C375.046 329.216 376.412 328.747 377.692 327.936C378.972 327.083 379.996 325.931 380.764 324.48C381.574 323.029 381.979 321.344 381.979 319.424C381.979 316.992 381.148 314.987 379.484 313.408C377.862 311.787 375.729 310.976 373.084 310.976H357.788L358.236 310.08V330.24L357.532 329.344ZM468.39 329.6C468.39 332.971 467.856 336.064 466.79 338.88C465.766 341.653 464.294 344.085 462.374 346.176C460.454 348.224 458.171 349.824 455.526 350.976C452.923 352.085 450.064 352.64 446.95 352.64C443.835 352.64 440.955 352.085 438.31 350.976C435.707 349.824 433.446 348.224 431.526 346.176C429.606 344.085 428.112 341.653 427.046 338.88C426.022 336.064 425.51 332.971 425.51 329.6C425.51 326.229 426.022 323.157 427.046 320.384C428.112 317.568 429.606 315.136 431.526 313.088C433.446 310.997 435.707 309.397 438.31 308.288C440.955 307.136 443.835 306.56 446.95 306.56C450.064 306.56 452.923 307.136 455.526 308.288C458.171 309.397 460.454 310.997 462.374 313.088C464.294 315.136 465.766 317.568 466.79 320.384C467.856 323.157 468.39 326.229 468.39 329.6ZM464.294 329.6C464.294 325.803 463.547 322.475 462.054 319.616C460.603 316.715 458.576 314.453 455.974 312.832C453.371 311.211 450.363 310.4 446.95 310.4C443.579 310.4 440.571 311.211 437.926 312.832C435.323 314.453 433.275 316.715 431.782 319.616C430.331 322.475 429.606 325.803 429.606 329.6C429.606 333.397 430.331 336.747 431.782 339.648C433.275 342.507 435.323 344.747 437.926 346.368C440.571 347.989 443.579 348.8 446.95 348.8C450.363 348.8 453.371 347.989 455.974 346.368C458.576 344.747 460.603 342.507 462.054 339.648C463.547 336.747 464.294 333.397 464.294 329.6Z" fill="#192655"/>
<path d="M93 375.2C94.152 375.2 95.176 375.416 96.072 375.848C96.968 376.28 97.72 376.888 98.328 377.672C98.952 378.44 99.416 379.336 99.72 380.36C100.04 381.368 100.2 382.448 100.2 383.6C100.2 385.152 99.92 386.568 99.36 387.848C98.8 389.112 97.984 390.12 96.912 390.872C95.856 391.624 94.552 392 93 392H87.264C86.848 392 86.496 391.864 86.208 391.592C85.936 391.304 85.8 390.952 85.8 390.536V376.664C85.8 376.248 85.936 375.904 86.208 375.632C86.496 375.344 86.848 375.2 87.264 375.2H93ZM92.76 389.24C93.768 389.24 94.592 388.984 95.232 388.472C95.872 387.944 96.336 387.256 96.624 386.408C96.928 385.544 97.08 384.608 97.08 383.6C97.08 382.848 96.992 382.136 96.816 381.464C96.656 380.776 96.4 380.176 96.048 379.664C95.696 379.136 95.248 378.72 94.704 378.416C94.16 378.112 93.512 377.96 92.76 377.96H88.56L88.8 377.744V389.504L88.656 389.24H92.76ZM112.628 390.536C112.628 390.952 112.492 391.304 112.22 391.592C111.948 391.864 111.604 392 111.188 392C110.772 392 110.428 391.864 110.156 391.592C109.884 391.304 109.748 390.952 109.748 390.536V380.624C109.748 380.208 109.884 379.864 110.156 379.592C110.428 379.304 110.772 379.16 111.188 379.16C111.604 379.16 111.948 379.304 112.22 379.592C112.492 379.864 112.628 380.208 112.628 380.624V390.536ZM111.164 377.6C110.62 377.6 110.236 377.512 110.012 377.336C109.788 377.16 109.676 376.848 109.676 376.4V375.944C109.676 375.48 109.796 375.168 110.036 375.008C110.292 374.832 110.676 374.744 111.188 374.744C111.748 374.744 112.14 374.832 112.364 375.008C112.588 375.184 112.7 375.496 112.7 375.944V376.4C112.7 376.864 112.58 377.184 112.34 377.36C112.1 377.52 111.708 377.6 111.164 377.6ZM128.116 378.92C128.788 378.92 129.404 379.024 129.964 379.232C130.524 379.44 131.004 379.704 131.404 380.024C131.82 380.344 132.14 380.672 132.364 381.008C132.604 381.328 132.724 381.6 132.724 381.824L132.1 382.136V380.384C132.1 379.968 132.236 379.624 132.508 379.352C132.78 379.064 133.124 378.92 133.54 378.92C133.956 378.92 134.3 379.056 134.572 379.328C134.844 379.6 134.98 379.952 134.98 380.384V391.064C134.98 392.456 134.676 393.568 134.068 394.4C133.476 395.248 132.692 395.856 131.716 396.224C130.74 396.608 129.692 396.8 128.572 396.8C128.252 396.8 127.836 396.76 127.324 396.68C126.812 396.6 126.324 396.504 125.86 396.392C125.396 396.28 125.044 396.176 124.804 396.08C124.324 395.872 123.988 395.608 123.796 395.288C123.62 394.984 123.588 394.656 123.7 394.304C123.844 393.84 124.076 393.52 124.396 393.344C124.716 393.184 125.052 393.168 125.404 393.296C125.564 393.344 125.828 393.44 126.196 393.584C126.564 393.728 126.964 393.856 127.396 393.968C127.844 394.096 128.236 394.16 128.572 394.16C129.772 394.16 130.66 393.92 131.236 393.44C131.812 392.96 132.1 392.296 132.1 391.448V389.36L132.388 389.576C132.388 389.784 132.276 390.04 132.052 390.344C131.844 390.632 131.548 390.92 131.164 391.208C130.796 391.496 130.356 391.744 129.844 391.952C129.332 392.144 128.788 392.24 128.212 392.24C127.076 392.24 126.052 391.96 125.14 391.4C124.228 390.824 123.508 390.04 122.98 389.048C122.452 388.04 122.188 386.888 122.188 385.592C122.188 384.28 122.452 383.128 122.98 382.136C123.508 381.128 124.22 380.344 125.116 379.784C126.012 379.208 127.012 378.92 128.116 378.92ZM128.572 381.56C127.852 381.56 127.22 381.736 126.676 382.088C126.132 382.44 125.708 382.92 125.404 383.528C125.1 384.136 124.948 384.824 124.948 385.592C124.948 386.344 125.1 387.024 125.404 387.632C125.708 388.24 126.132 388.72 126.676 389.072C127.22 389.424 127.852 389.6 128.572 389.6C129.308 389.6 129.948 389.424 130.492 389.072C131.036 388.72 131.46 388.24 131.764 387.632C132.068 387.024 132.22 386.344 132.22 385.592C132.22 384.824 132.068 384.136 131.764 383.528C131.46 382.92 131.036 382.44 130.492 382.088C129.948 381.736 129.308 381.56 128.572 381.56ZM148.005 390.536C148.005 390.952 147.869 391.304 147.597 391.592C147.325 391.864 146.981 392 146.565 392C146.149 392 145.805 391.864 145.533 391.592C145.261 391.304 145.125 390.952 145.125 390.536V380.624C145.125 380.208 145.261 379.864 145.533 379.592C145.805 379.304 146.149 379.16 146.565 379.16C146.981 379.16 147.325 379.304 147.597 379.592C147.869 379.864 148.005 380.208 148.005 380.624V390.536ZM146.541 377.6C145.997 377.6 145.613 377.512 145.389 377.336C145.165 377.16 145.053 376.848 145.053 376.4V375.944C145.053 375.48 145.173 375.168 145.413 375.008C145.669 374.832 146.053 374.744 146.565 374.744C147.125 374.744 147.517 374.832 147.741 375.008C147.965 375.184 148.077 375.496 148.077 375.944V376.4C148.077 376.864 147.957 377.184 147.717 377.36C147.477 377.52 147.085 377.6 146.541 377.6ZM158.309 379.4H163.997C164.381 379.4 164.701 379.528 164.957 379.784C165.213 380.04 165.341 380.36 165.341 380.744C165.341 381.112 165.213 381.424 164.957 381.68C164.701 381.92 164.381 382.04 163.997 382.04H158.309C157.925 382.04 157.605 381.912 157.349 381.656C157.093 381.4 156.965 381.08 156.965 380.696C156.965 380.328 157.093 380.024 157.349 379.784C157.605 379.528 157.925 379.4 158.309 379.4ZM160.877 376.4C161.293 376.4 161.629 376.544 161.885 376.832C162.157 377.104 162.293 377.448 162.293 377.864V388.544C162.293 388.768 162.333 388.952 162.413 389.096C162.509 389.24 162.629 389.344 162.773 389.408C162.933 389.472 163.101 389.504 163.277 389.504C163.469 389.504 163.645 389.472 163.805 389.408C163.965 389.328 164.149 389.288 164.357 389.288C164.581 389.288 164.781 389.392 164.957 389.6C165.149 389.808 165.245 390.096 165.245 390.464C165.245 390.912 164.997 391.28 164.501 391.568C164.021 391.856 163.501 392 162.941 392C162.605 392 162.229 391.976 161.813 391.928C161.413 391.864 161.029 391.728 160.661 391.52C160.309 391.296 160.013 390.96 159.773 390.512C159.533 390.064 159.413 389.448 159.413 388.664V377.864C159.413 377.448 159.549 377.104 159.821 376.832C160.109 376.544 160.461 376.4 160.877 376.4ZM185.697 378.92C186.113 378.92 186.457 379.056 186.729 379.328C187.001 379.6 187.137 379.952 187.137 380.384V390.536C187.137 390.952 187.001 391.304 186.729 391.592C186.457 391.864 186.113 392 185.697 392C185.281 392 184.937 391.864 184.665 391.592C184.393 391.304 184.257 390.952 184.257 390.536V389.36L184.785 389.576C184.785 389.784 184.673 390.04 184.449 390.344C184.225 390.632 183.921 390.92 183.537 391.208C183.153 391.496 182.697 391.744 182.169 391.952C181.657 392.144 181.097 392.24 180.489 392.24C179.385 392.24 178.385 391.96 177.489 391.4C176.593 390.824 175.881 390.04 175.353 389.048C174.841 388.04 174.585 386.888 174.585 385.592C174.585 384.28 174.841 383.128 175.353 382.136C175.881 381.128 176.585 380.344 177.465 379.784C178.345 379.208 179.321 378.92 180.393 378.92C181.081 378.92 181.713 379.024 182.289 379.232C182.865 379.44 183.361 379.704 183.777 380.024C184.209 380.344 184.537 380.672 184.761 381.008C185.001 381.328 185.121 381.6 185.121 381.824L184.257 382.136V380.384C184.257 379.968 184.393 379.624 184.665 379.352C184.937 379.064 185.281 378.92 185.697 378.92ZM180.849 389.6C181.553 389.6 182.169 389.424 182.697 389.072C183.225 388.72 183.633 388.24 183.921 387.632C184.225 387.024 184.377 386.344 184.377 385.592C184.377 384.824 184.225 384.136 183.921 383.528C183.633 382.92 183.225 382.44 182.697 382.088C182.169 381.736 181.553 381.56 180.849 381.56C180.161 381.56 179.553 381.736 179.025 382.088C178.497 382.44 178.081 382.92 177.777 383.528C177.489 384.136 177.345 384.824 177.345 385.592C177.345 386.344 177.489 387.024 177.777 387.632C178.081 388.24 178.497 388.72 179.025 389.072C179.553 389.424 180.161 389.6 180.849 389.6ZM200.575 390.536C200.575 390.952 200.431 391.304 200.143 391.592C199.871 391.864 199.527 392 199.111 392C198.711 392 198.375 391.864 198.103 391.592C197.831 391.304 197.695 390.952 197.695 390.536V375.704C197.695 375.288 197.831 374.944 198.103 374.672C198.391 374.384 198.743 374.24 199.159 374.24C199.575 374.24 199.911 374.384 200.167 374.672C200.439 374.944 200.575 375.288 200.575 375.704V390.536ZM230.691 392.24C229.571 392.24 228.563 392.104 227.667 391.832C226.771 391.544 225.915 391.048 225.099 390.344C224.891 390.168 224.731 389.968 224.619 389.744C224.507 389.52 224.451 389.296 224.451 389.072C224.451 388.704 224.579 388.384 224.835 388.112C225.107 387.824 225.443 387.68 225.843 387.68C226.147 387.68 226.419 387.776 226.659 387.968C227.267 388.464 227.867 388.84 228.459 389.096C229.067 389.352 229.811 389.48 230.691 389.48C231.283 389.48 231.827 389.392 232.323 389.216C232.819 389.024 233.219 388.776 233.523 388.472C233.827 388.152 233.979 387.792 233.979 387.392C233.979 386.912 233.835 386.504 233.547 386.168C233.259 385.832 232.819 385.552 232.227 385.328C231.635 385.088 230.883 384.904 229.971 384.776C229.107 384.648 228.347 384.456 227.691 384.2C227.035 383.928 226.483 383.592 226.035 383.192C225.603 382.776 225.275 382.296 225.051 381.752C224.827 381.192 224.715 380.568 224.715 379.88C224.715 378.84 224.979 377.952 225.507 377.216C226.051 376.48 226.779 375.92 227.691 375.536C228.603 375.152 229.611 374.96 230.715 374.96C231.755 374.96 232.715 375.12 233.595 375.44C234.491 375.744 235.219 376.136 235.779 376.616C236.243 376.984 236.475 377.408 236.475 377.888C236.475 378.24 236.339 378.56 236.067 378.848C235.795 379.136 235.475 379.28 235.107 379.28C234.867 379.28 234.651 379.208 234.459 379.064C234.203 378.84 233.859 378.632 233.427 378.44C232.995 378.232 232.539 378.064 232.059 377.936C231.579 377.792 231.131 377.72 230.715 377.72C230.027 377.72 229.443 377.808 228.963 377.984C228.499 378.16 228.147 378.4 227.907 378.704C227.667 379.008 227.547 379.36 227.547 379.76C227.547 380.24 227.683 380.64 227.955 380.96C228.243 381.264 228.651 381.512 229.179 381.704C229.707 381.88 230.339 382.04 231.075 382.184C232.035 382.36 232.875 382.568 233.595 382.808C234.331 383.048 234.939 383.36 235.419 383.744C235.899 384.112 236.259 384.584 236.499 385.16C236.739 385.72 236.859 386.408 236.859 387.224C236.859 388.264 236.571 389.16 235.995 389.912C235.419 390.664 234.659 391.24 233.715 391.64C232.787 392.04 231.779 392.24 230.691 392.24ZM259.027 385.592C259.027 386.904 258.731 388.064 258.139 389.072C257.563 390.064 256.779 390.84 255.787 391.4C254.811 391.96 253.715 392.24 252.499 392.24C251.283 392.24 250.179 391.96 249.187 391.4C248.211 390.84 247.427 390.064 246.835 389.072C246.259 388.064 245.971 386.904 245.971 385.592C245.971 384.28 246.259 383.128 246.835 382.136C247.427 381.128 248.211 380.344 249.187 379.784C250.179 379.208 251.283 378.92 252.499 378.92C253.715 378.92 254.811 379.208 255.787 379.784C256.779 380.344 257.563 381.128 258.139 382.136C258.731 383.128 259.027 384.28 259.027 385.592ZM256.147 385.592C256.147 384.776 255.979 384.072 255.643 383.48C255.323 382.872 254.883 382.4 254.323 382.064C253.779 381.728 253.171 381.56 252.499 381.56C251.827 381.56 251.211 381.728 250.651 382.064C250.107 382.4 249.667 382.872 249.331 383.48C249.011 384.072 248.851 384.776 248.851 385.592C248.851 386.392 249.011 387.096 249.331 387.704C249.667 388.296 250.107 388.76 250.651 389.096C251.211 389.432 251.827 389.6 252.499 389.6C253.171 389.6 253.779 389.432 254.323 389.096C254.883 388.76 255.323 388.296 255.643 387.704C255.979 387.096 256.147 386.392 256.147 385.592ZM271.868 390.536C271.868 390.952 271.724 391.304 271.436 391.592C271.164 391.864 270.82 392 270.404 392C270.004 392 269.668 391.864 269.396 391.592C269.124 391.304 268.988 390.952 268.988 390.536V375.704C268.988 375.288 269.124 374.944 269.396 374.672C269.684 374.384 270.036 374.24 270.452 374.24C270.868 374.24 271.204 374.384 271.46 374.672C271.732 374.944 271.868 375.288 271.868 375.704V390.536ZM291.827 379.16C292.243 379.16 292.587 379.304 292.859 379.592C293.131 379.864 293.267 380.208 293.267 380.624V386.72C293.267 388.416 292.795 389.76 291.851 390.752C290.907 391.744 289.547 392.24 287.771 392.24C285.995 392.24 284.635 391.744 283.691 390.752C282.763 389.76 282.299 388.416 282.299 386.72V380.624C282.299 380.208 282.435 379.864 282.707 379.592C282.979 379.304 283.323 379.16 283.739 379.16C284.155 379.16 284.499 379.304 284.771 379.592C285.043 379.864 285.179 380.208 285.179 380.624V386.72C285.179 387.696 285.395 388.424 285.827 388.904C286.259 389.368 286.907 389.6 287.771 389.6C288.651 389.6 289.307 389.368 289.739 388.904C290.171 388.424 290.387 387.696 290.387 386.72V380.624C290.387 380.208 290.523 379.864 290.795 379.592C291.067 379.304 291.411 379.16 291.827 379.16ZM303.729 379.4H309.417C309.801 379.4 310.121 379.528 310.377 379.784C310.633 380.04 310.761 380.36 310.761 380.744C310.761 381.112 310.633 381.424 310.377 381.68C310.121 381.92 309.801 382.04 309.417 382.04H303.729C303.345 382.04 303.025 381.912 302.769 381.656C302.513 381.4 302.385 381.08 302.385 380.696C302.385 380.328 302.513 380.024 302.769 379.784C303.025 379.528 303.345 379.4 303.729 379.4ZM306.297 376.4C306.713 376.4 307.049 376.544 307.305 376.832C307.577 377.104 307.713 377.448 307.713 377.864V388.544C307.713 388.768 307.753 388.952 307.833 389.096C307.929 389.24 308.049 389.344 308.193 389.408C308.353 389.472 308.521 389.504 308.697 389.504C308.889 389.504 309.065 389.472 309.225 389.408C309.385 389.328 309.569 389.288 309.777 389.288C310.001 389.288 310.201 389.392 310.377 389.6C310.569 389.808 310.665 390.096 310.665 390.464C310.665 390.912 310.417 391.28 309.921 391.568C309.441 391.856 308.921 392 308.361 392C308.025 392 307.649 391.976 307.233 391.928C306.833 391.864 306.449 391.728 306.081 391.52C305.729 391.296 305.433 390.96 305.193 390.512C304.953 390.064 304.833 389.448 304.833 388.664V377.864C304.833 377.448 304.969 377.104 305.241 376.832C305.529 376.544 305.881 376.4 306.297 376.4ZM323.317 390.536C323.317 390.952 323.181 391.304 322.909 391.592C322.637 391.864 322.293 392 321.877 392C321.461 392 321.117 391.864 320.845 391.592C320.573 391.304 320.437 390.952 320.437 390.536V380.624C320.437 380.208 320.573 379.864 320.845 379.592C321.117 379.304 321.461 379.16 321.877 379.16C322.293 379.16 322.637 379.304 322.909 379.592C323.181 379.864 323.317 380.208 323.317 380.624V390.536ZM321.853 377.6C321.309 377.6 320.925 377.512 320.701 377.336C320.477 377.16 320.365 376.848 320.365 376.4V375.944C320.365 375.48 320.485 375.168 320.725 375.008C320.981 374.832 321.365 374.744 321.877 374.744C322.437 374.744 322.829 374.832 323.053 375.008C323.277 375.184 323.389 375.496 323.389 375.944V376.4C323.389 376.864 323.269 377.184 323.029 377.36C322.789 377.52 322.397 377.6 321.853 377.6ZM345.933 385.592C345.933 386.904 345.637 388.064 345.045 389.072C344.469 390.064 343.685 390.84 342.693 391.4C341.717 391.96 340.621 392.24 339.405 392.24C338.189 392.24 337.085 391.96 336.093 391.4C335.117 390.84 334.333 390.064 333.741 389.072C333.165 388.064 332.877 386.904 332.877 385.592C332.877 384.28 333.165 383.128 333.741 382.136C334.333 381.128 335.117 380.344 336.093 379.784C337.085 379.208 338.189 378.92 339.405 378.92C340.621 378.92 341.717 379.208 342.693 379.784C343.685 380.344 344.469 381.128 345.045 382.136C345.637 383.128 345.933 384.28 345.933 385.592ZM343.053 385.592C343.053 384.776 342.885 384.072 342.549 383.48C342.229 382.872 341.789 382.4 341.229 382.064C340.685 381.728 340.077 381.56 339.405 381.56C338.733 381.56 338.117 381.728 337.557 382.064C337.013 382.4 336.573 382.872 336.237 383.48C335.917 384.072 335.757 384.776 335.757 385.592C335.757 386.392 335.917 387.096 336.237 387.704C336.573 388.296 337.013 388.76 337.557 389.096C338.117 389.432 338.733 389.6 339.405 389.6C340.077 389.6 340.685 389.432 341.229 389.096C341.789 388.76 342.229 388.296 342.549 387.704C342.885 387.096 343.053 386.392 343.053 385.592ZM362.518 378.92C363.702 378.92 364.598 379.168 365.206 379.664C365.83 380.16 366.254 380.824 366.478 381.656C366.718 382.472 366.838 383.384 366.838 384.392V390.536C366.838 390.952 366.702 391.304 366.43 391.592C366.158 391.864 365.814 392 365.398 392C364.982 392 364.638 391.864 364.366 391.592C364.094 391.304 363.958 390.952 363.958 390.536V384.392C363.958 383.864 363.886 383.392 363.742 382.976C363.614 382.544 363.374 382.2 363.022 381.944C362.67 381.688 362.166 381.56 361.51 381.56C360.87 381.56 360.326 381.688 359.878 381.944C359.446 382.2 359.11 382.544 358.87 382.976C358.646 383.392 358.534 383.864 358.534 384.392V390.536C358.534 390.952 358.398 391.304 358.126 391.592C357.854 391.864 357.51 392 357.094 392C356.678 392 356.334 391.864 356.062 391.592C355.79 391.304 355.654 390.952 355.654 390.536V380.624C355.654 380.208 355.79 379.864 356.062 379.592C356.334 379.304 356.678 379.16 357.094 379.16C357.51 379.16 357.854 379.304 358.126 379.592C358.398 379.864 358.534 380.208 358.534 380.624V381.656L358.174 381.584C358.318 381.312 358.526 381.024 358.798 380.72C359.07 380.4 359.39 380.104 359.758 379.832C360.126 379.56 360.542 379.344 361.006 379.184C361.47 379.008 361.974 378.92 362.518 378.92ZM376.407 390.008C376.247 389.784 376.175 389.496 376.191 389.144C376.207 388.792 376.415 388.488 376.815 388.232C377.071 388.072 377.343 388.008 377.631 388.04C377.919 388.056 378.199 388.2 378.471 388.472C378.935 388.936 379.423 389.296 379.935 389.552C380.447 389.808 381.087 389.936 381.855 389.936C382.095 389.92 382.359 389.888 382.647 389.84C382.935 389.776 383.183 389.648 383.391 389.456C383.615 389.248 383.727 388.936 383.727 388.52C383.727 388.168 383.607 387.888 383.367 387.68C383.127 387.472 382.807 387.296 382.407 387.152C382.023 387.008 381.591 386.872 381.111 386.744C380.615 386.6 380.103 386.44 379.575 386.264C379.063 386.088 378.591 385.864 378.159 385.592C377.727 385.304 377.375 384.928 377.103 384.464C376.831 384 376.695 383.416 376.695 382.712C376.695 381.912 376.919 381.232 377.367 380.672C377.815 380.112 378.391 379.68 379.095 379.376C379.815 379.072 380.567 378.92 381.351 378.92C381.847 378.92 382.367 378.984 382.911 379.112C383.455 379.224 383.975 379.416 384.471 379.688C384.967 379.944 385.383 380.288 385.719 380.72C385.895 380.96 385.999 381.248 386.031 381.584C386.063 381.92 385.911 382.224 385.575 382.496C385.335 382.688 385.055 382.776 384.735 382.76C384.415 382.728 384.151 382.616 383.943 382.424C383.671 382.072 383.303 381.792 382.839 381.584C382.391 381.376 381.871 381.272 381.279 381.272C381.039 381.272 380.775 381.304 380.487 381.368C380.215 381.416 379.975 381.536 379.767 381.728C379.559 381.904 379.455 382.192 379.455 382.592C379.455 382.96 379.575 383.256 379.815 383.48C380.055 383.688 380.375 383.864 380.775 384.008C381.191 384.136 381.631 384.264 382.095 384.392C382.575 384.52 383.063 384.672 383.559 384.848C384.055 385.024 384.511 385.256 384.927 385.544C385.343 385.832 385.679 386.208 385.935 386.672C386.191 387.12 386.319 387.696 386.319 388.4C386.319 389.216 386.079 389.912 385.599 390.488C385.119 391.064 384.519 391.504 383.799 391.808C383.079 392.096 382.343 392.24 381.591 392.24C380.647 392.24 379.703 392.08 378.759 391.76C377.815 391.424 377.031 390.84 376.407 390.008Z" fill="#192655"/>
<path d="M235.64 65.77V274.23" stroke="#192655" stroke-width="18" stroke-miterlimit="10" stroke-linecap="round"/>
<path d="M294.87 130.23C308.677 130.23 319.87 119.037 319.87 105.23C319.87 91.4229 308.677 80.23 294.87 80.23C281.063 80.23 269.87 91.4229 269.87 105.23C269.87 119.037 281.063 130.23 294.87 130.23Z" stroke="#192655" stroke-width="18" stroke-miterlimit="10"/>
<path d="M236 59C249.807 59 261 47.8071 261 34C261 20.1929 249.807 9 236 9C222.193 9 211 20.1929 211 34C211 47.8071 222.193 59 236 59Z" fill="#192655" stroke="#192655" stroke-width="18" stroke-miterlimit="10"/>
<path d="M294.87 130.23V183.34L235.64 216.74" stroke="#192655" stroke-width="18" stroke-miterlimit="10"/>
<path d="M362.28 86.98C376.087 86.98 387.28 75.7871 387.28 61.98C387.28 48.1729 376.087 36.98 362.28 36.98C348.473 36.98 337.28 48.1729 337.28 61.98C337.28 75.7871 348.473 86.98 362.28 86.98Z" stroke="#192655" stroke-width="18" stroke-miterlimit="10"/>
<path d="M362.28 86.98V140.09L290.79 162.11" stroke="#192655" stroke-width="18" stroke-miterlimit="10"/>
<path d="M176.4 165.48C190.207 165.48 201.4 154.287 201.4 140.48C201.4 126.673 190.207 115.48 176.4 115.48C162.593 115.48 151.4 126.673 151.4 140.48C151.4 154.287 162.593 165.48 176.4 165.48Z" stroke="#192655" stroke-width="18" stroke-miterlimit="10"/>
<path d="M176.4 165.48V218.59L235.64 251.99" stroke="#192655" stroke-width="18" stroke-miterlimit="10"/>
<path d="M109 122.22C122.807 122.22 134 111.027 134 97.22C134 83.4129 122.807 72.22 109 72.22C95.1929 72.22 84 83.4129 84 97.22C84 111.027 95.1929 122.22 109 122.22Z" stroke="#192655" stroke-width="18" stroke-miterlimit="10"/>
<path d="M109 122.22V175.33L180.49 197.35" stroke="#192655" stroke-width="18" stroke-miterlimit="10"/>
<path d="M235.19 421.37V629.84" stroke="#192655" stroke-width="18" stroke-miterlimit="10" stroke-linecap="round"/>
<path d="M235.04 604.67C235.04 604.67 255.02 579.58 265.7 575.31C276.38 571.04 283.55 574.17 294.98 569.44C328.62 555.5 317.81 505.44 317.81 505.44C317.81 505.44 301.75 518.94 278.35 528.47C261.39 535.38 263.11 557.32 263.7 562.14C263.75 562.56 264.24 562.76 264.58 562.5C266.83 560.72 273.66 555.29 277.14 551.93C284.2 545.11 301.05 534.2 301.05 534.2C301.05 534.2 295.43 546.45 282.6 556.09C276.03 561.03 265.17 565.15 256.89 569.43C249.35 573.32 235.69 587.3 235.69 587.3L235.05 604.66L235.04 604.67Z" fill="#192655"/>
<path d="M235.04 557.6C235.04 557.6 225.13 544.43 213.43 539.83C202.28 535.45 178.45 536.08 169.68 510.3C160.89 484.47 152 463 152 463C152 463 192.8 463.6 207.83 486.06C218.84 502.52 216.9 517.31 216.25 522.5C216.19 522.95 215.66 523.17 215.29 522.89C212.82 520.98 206.46 508.41 202.65 504.8C194.91 497.47 176.39 482.63 176.39 482.63C176.39 482.63 191.52 503.91 198.94 514.27C204.12 521.51 214.63 525.74 223.71 530.34C231.98 534.53 234.33 538.92 234.33 538.92L235.03 557.59L235.04 557.6Z" fill="#192655"/>
</svg>
